<svg xmlns="http://www.w3.org/2000/svg" width="150" height="46" viewBox="0 0 2587.279 789.63">
  <g id="Grupo_38" data-name="Grupo 38" transform="translate(-136.044 -285)">
    <g id="Grupo_25" data-name="Grupo 25" transform="translate(136.044 285)">
      <g id="Grupo_22" data-name="Grupo 22" transform="translate(0 0)">
        <g id="Grupo_21" data-name="Grupo 21" transform="translate(0 0)">
          <g id="Grupo_19" data-name="Grupo 19" transform="translate(828.659 205.95)">
            <path id="Trazado_1" data-name="Trazado 1" d="M506.085-1198.062q-80.4,0-122.493-44.719t-42.1-127.012q0-40.9,12.848-73.019t35.2-54.228a147.13,147.13,0,0,1,53.274-33.534q30.918-11.426,67.075-11.419a214.808,214.808,0,0,1,38.057,3.092,249.127,249.127,0,0,1,29.967,7.137,148.418,148.418,0,0,1,21.41,8.32q8.552,4.285,12.366,6.662l-21.405,59.937a180.352,180.352,0,0,0-35.442-13.794q-20.228-5.714-45.9-5.709a101.3,101.3,0,0,0-33.541,5.709,75.862,75.862,0,0,0-29.013,18.31q-12.617,12.62-20.216,32.588-7.626,19.979-7.614,48.522a173.3,173.3,0,0,0,4.994,42.576q4.992,19.742,16.17,34.012a77.57,77.57,0,0,0,29.259,22.6q18.075,8.326,43.763,8.322a198.586,198.586,0,0,0,29.019-1.9,214.967,214.967,0,0,0,22.83-4.518,119.9,119.9,0,0,0,17.605-5.944q7.6-3.321,13.8-6.188l20.451,59.467q-15.7,9.514-44.244,17.124T506.085-1198.062Z" transform="translate(-341.495 1573.866)"/>
            <path id="Trazado_2" data-name="Trazado 2" d="M645.986-1393.664q0,29.495-8.567,53.986-8.567,24.511-24.737,41.866a111.27,111.27,0,0,1-38.77,26.87q-22.592,9.516-50.66,9.521-27.59,0-50.182-9.521a111.181,111.181,0,0,1-38.77-26.87q-16.178-17.367-25.209-41.866t-9.039-53.986q0-29.489,9.276-53.758t25.686-41.384a115.451,115.451,0,0,1,39.006-26.641,125.565,125.565,0,0,1,49.234-9.514q27.11,0,49.71,9.514a113.1,113.1,0,0,1,38.775,26.641q16.156,17.118,25.209,41.384Q645.981-1423.158,645.986-1393.664Zm-72.311,0q0-32.826-13.079-51.614t-37.344-18.794q-24.262,0-37.576,18.794t-13.324,51.614q0,32.82,13.324,52.089,13.3,19.257,37.576,19.261t37.344-19.261Q573.666-1360.847,573.675-1393.664Z" transform="translate(-123.669 1637.226)"/>
            <path id="Trazado_3" data-name="Trazado 3" d="M702.12-1393.664q0,29.495-8.566,53.986-8.561,24.511-24.733,41.866a111.27,111.27,0,0,1-38.77,26.87q-22.593,9.516-50.659,9.521-27.6,0-50.188-9.521a111.18,111.18,0,0,1-38.77-26.87q-16.178-17.367-25.21-41.866t-9.038-53.986q0-29.489,9.275-53.758t25.686-41.384a115.463,115.463,0,0,1,39.006-26.641,125.577,125.577,0,0,1,49.24-9.514q27.107,0,49.71,9.514a113.08,113.08,0,0,1,38.77,26.641q16.156,17.118,25.209,41.384Q702.115-1423.158,702.12-1393.664Zm-72.31,0q0-32.826-13.079-51.614t-37.339-18.794q-24.271,0-37.581,18.794t-13.325,51.614q0,32.82,13.325,52.089,13.3,19.257,37.581,19.261,24.256,0,37.339-19.261T629.811-1393.664Z" transform="translate(85.155 1637.226)"/>
            <path id="Trazado_4" data-name="Trazado 4" d="M744.935-1187.688q-9.523,2.849-21.881,5.469-12.377,2.619-25.932,4.518t-27.583,3.091q-14.04,1.179-26.88,1.194-30.924,0-55.181-9.044-24.256-9.025-40.908-25.924a112.423,112.423,0,0,1-25.454-40.905q-8.794-24.023-8.793-54,0-30.439,7.612-54.943,7.6-24.488,21.882-41.623a93.636,93.636,0,0,1,34.96-26.159q20.689-9.034,47.328-9.04a111.47,111.47,0,0,1,26.4,2.852,143.635,143.635,0,0,1,23.553,8.089v-113.22l70.875-11.415ZM584.622-1306.614q0,32.818,14.75,52.8t43.764,19.979q9.515,0,17.6-.716t13.325-1.663v-128.912a61.618,61.618,0,0,0-17.369-7.136,83.686,83.686,0,0,0-21.646-2.855Q584.622-1375.115,584.622-1306.614Z" transform="translate(293.975 1548.745)"/>
            <path id="Trazado_5" data-name="Trazado 5" d="M568.156-1391.284q0-33.293,10.224-58.278t26.879-41.622a111.8,111.8,0,0,1,38.289-25.213,119.939,119.939,0,0,1,44.48-8.562q53.265,0,84.2,32.588,30.911,32.584,30.92,95.851c0,4.126-.17,8.644-.482,13.558s-.632,9.274-.943,13.08H640.934q2.372,21.889,20.461,34.727,18.061,12.845,48.516,12.843a204.853,204.853,0,0,0,38.293-3.566q18.784-3.57,30.684-8.8l9.511,57.558a97.837,97.837,0,0,1-15.222,5.713,199.559,199.559,0,0,1-21.165,4.992q-11.661,2.136-24.973,3.569a250.234,250.234,0,0,1-26.64,1.428q-33.787,0-58.749-9.989-24.979-9.995-41.389-27.354A108.492,108.492,0,0,1,576-1339.915,162.8,162.8,0,0,1,568.156-1391.284ZM734.648-1418.4a73.789,73.789,0,0,0-3.092-17.6,44.151,44.151,0,0,0-8.09-15.215,43.128,43.128,0,0,0-13.792-10.943q-8.333-4.282-20.7-4.284-11.894,0-20.453,4.049a42.281,42.281,0,0,0-14.272,10.7,48.119,48.119,0,0,0-8.8,15.458,101.77,101.77,0,0,0-4.518,17.841Z" transform="translate(501.676 1637.226)"/>
            <path id="Trazado_6" data-name="Trazado 6" d="M707.943-1318.981q19.5,0,27.593-3.81,8.083-3.794,8.084-14.743,0-8.563-10.459-14.984-10.479-6.425-31.879-14.513a324.138,324.138,0,0,1-30.2-12.835,88.794,88.794,0,0,1-23.072-15.943,64.309,64.309,0,0,1-14.744-22.116q-5.246-12.845-5.235-30.921,0-35.2,26.163-55.657t71.828-20.456a230.419,230.419,0,0,1,43.764,4.047q20.929,4.047,33.3,8.8l-12.366,55.183a261.32,261.32,0,0,0-26.885-7.612,146.047,146.047,0,0,0-32.588-3.329q-33.3,0-33.295,18.549a19,19,0,0,0,1.43,7.609,16.237,16.237,0,0,0,5.706,6.424,79.914,79.914,0,0,0,11.655,6.688q7.37,3.6,18.791,7.9,23.3,8.65,38.533,17.037,15.215,8.389,24.02,18.119a55.918,55.918,0,0,1,12.366,21.6,95.639,95.639,0,0,1,3.573,27.521q0,37.03-27.829,56.015t-78.729,18.987q-33.3,0-55.417-5.712t-30.685-9.515l11.9-57.562a231.32,231.32,0,0,0,37.1,11.182A180.338,180.338,0,0,0,707.943-1318.981Z" transform="translate(699.626 1637.226)"/>
            <path id="Trazado_7" data-name="Trazado 7" d="M668.331-1179.605V-1537.33l70.884-11.415v119.88a146.624,146.624,0,0,1,18.314-4.523,115.055,115.055,0,0,1,21.635-2.14q30.445,0,50.669,8.323t32.346,23.547A91.118,91.118,0,0,1,879.3-1367.5a201.052,201.052,0,0,1,4.993,46.618v141.278h-70.88V-1312.32q0-34.254-8.8-48.524t-32.582-14.271a91.228,91.228,0,0,0-17.847,1.668q-8.317,1.667-14.976,3.565v190.276Z" transform="translate(874.323 1548.745)"/>
          </g>
          <g id="Grupo_20" data-name="Grupo 20">
            <path id="Trazado_8" data-name="Trazado 8" d="M241.684-1592.582v107h.118c159.218,0,288.29,129.071,288.29,288.29S401.02-909,241.8-909l-.118,0v106.053c217.7,0,394.811-177.111,394.811-394.814S459.387-1592.582,241.684-1592.582Z" transform="translate(47.485 1592.582)" fill="#1267fc"/>
            <g id="Grupo_2" data-name="Grupo 2" transform="translate(0 104.315)">
              <path id="Trazado_9" data-name="Trazado 9" d="M470.223-990.311v-107.652A182.148,182.148,0,0,1,288.078-1280.11c0-100.6,81.551-182.15,182.145-182.15v-107.654c-160.052,0-289.8,129.75-289.8,289.8S310.17-990.311,470.223-990.311Z" transform="translate(-180.419 1569.915)" fill="#1267fc"/>
              <path id="Trazado_10" data-name="Trazado 10" d="M423.679-1280.175H531.333c-.032-160.023-129.765-289.74-289.8-289.74v107.66A182.146,182.146,0,0,1,423.679-1280.175Z" transform="translate(48.265 1569.915)" fill="#6ba3fc"/>
            </g>
          </g>
        </g>
      </g>
    </g>
  </g>
</svg>
